<svg xmlns="http://www.w3.org/2000/svg" xmlns:xlink="http://www.w3.org/1999/xlink" width="500" zoomAndPan="magnify" viewBox="0 0 375 374.999991" height="500" preserveAspectRatio="xMidYMid meet" version="1.0"><defs><g/></defs><g fill="#ffffff" fill-opacity="1"><g transform="translate(0.0000045, 219.147517)"><g><path d="M -1.390625 12.3125 C -1.390625 18.070312 3.574219 21.839844 9.234375 21.839844 C 16.578125 21.839844 21.148438 14.496094 24.027344 8.636719 C 25.613281 5.660156 26.90625 2.582031 28.394531 -0.398438 L 45.46875 -36.039062 C 46.660156 -38.621094 49.9375 -42.890625 52.617188 -42.890625 L 53.3125 -42.890625 L 53.3125 -47.058594 L 33.359375 -47.058594 L 33.359375 -42.890625 L 34.054688 -42.890625 C 37.527344 -42.890625 41.101562 -41.996094 41.101562 -38.621094 C 41.101562 -37.925781 41.003906 -37.128906 40.703125 -36.4375 L 30.378906 -14.296875 L 20.351562 -39.214844 C 20.253906 -39.613281 20.054688 -39.910156 19.957031 -40.308594 C 19.855469 -40.605469 19.757812 -40.902344 19.757812 -41.300781 C 19.757812 -42.292969 20.351562 -42.890625 21.542969 -42.890625 L 22.238281 -42.890625 L 22.238281 -47.058594 L -0.496094 -47.058594 L -0.496094 -42.890625 L 0.199219 -42.890625 C 3.078125 -42.890625 6.355469 -39.214844 7.445312 -36.535156 L 22.835938 1.289062 C 21.542969 4.167969 16.578125 15.191406 13.304688 15.191406 C 12.609375 15.191406 12.210938 14.890625 11.914062 14.296875 C 11.617188 13.699219 11.515625 12.90625 11.417969 12.210938 C 10.921875 9.132812 9.132812 6.15625 5.164062 6.15625 C 1.589844 6.15625 -1.390625 8.835938 -1.390625 12.3125 Z M -1.390625 12.3125 "/></g></g></g><g fill="#ffffff" fill-opacity="1"><g transform="translate(53.3115, 219.147517)"><g><path d="M 32.664062 1.191406 C 40.605469 1.191406 48.746094 -0.398438 54.605469 -6.054688 C 55.199219 -6.652344 56.589844 -7.941406 57.085938 -8.933594 L 58.277344 -20.054688 L 54.40625 -20.054688 C 50.535156 -10.425781 45.171875 -3.671875 33.359375 -3.671875 C 19.855469 -3.671875 14.792969 -21.941406 14.792969 -32.863281 C 14.792969 -43.386719 19.757812 -61.257812 32.863281 -61.257812 C 43.585938 -61.257812 49.441406 -52.917969 53.910156 -44.476562 L 57.582031 -44.476562 L 56.492188 -56.191406 C 55.992188 -56.988281 54.304688 -58.675781 53.910156 -59.070312 C 48.050781 -63.738281 40.804688 -65.625 33.457031 -65.625 C 13.402344 -65.625 1.390625 -51.726562 1.390625 -32.167969 C 1.390625 -12.210938 11.914062 1.191406 32.664062 1.191406 Z M 32.664062 1.191406 "/></g></g></g><g fill="#ffffff" fill-opacity="1"><g transform="translate(112.579577, 219.147517)"><g><path d="M 24.324219 0.992188 C 39.710938 0.992188 46.660156 -10.226562 46.660156 -23.53125 C 46.660156 -37.128906 39.8125 -47.65625 24.324219 -47.65625 C 8.835938 -47.65625 2.085938 -37.03125 2.085938 -23.53125 C 2.085938 -10.226562 8.835938 0.992188 24.324219 0.992188 Z M 15.488281 -23.53125 C 15.488281 -29.386719 15.984375 -43.78125 24.324219 -43.78125 C 32.664062 -43.78125 33.257812 -29.386719 33.257812 -23.53125 C 33.257812 -17.671875 32.664062 -2.976562 24.324219 -2.976562 C 15.984375 -2.976562 15.488281 -17.671875 15.488281 -23.53125 Z M 15.488281 -23.53125 "/></g></g></g><g fill="#ffffff" fill-opacity="1"><g transform="translate(161.125787, 219.147517)"><g><path d="M 0.496094 0 L 22.535156 0 L 22.535156 -4.269531 L 21.839844 -4.269531 C 18.765625 -4.269531 17.871094 -5.261719 17.871094 -8.140625 L 17.871094 -33.558594 C 17.871094 -37.527344 21.941406 -42.589844 26.109375 -42.589844 C 30.976562 -42.589844 33.257812 -38.125 33.257812 -33.558594 L 33.257812 -8.140625 C 33.257812 -5.261719 32.367188 -4.269531 29.289062 -4.269531 L 28.59375 -4.269531 L 28.59375 0 L 50.632812 0 L 50.632812 -4.269531 L 49.9375 -4.269531 C 46.960938 -4.269531 46.066406 -5.261719 46.066406 -8.140625 L 46.066406 -33.753906 C 46.066406 -43.085938 39.511719 -47.65625 30.378906 -47.65625 C 25.8125 -47.65625 21.148438 -46.5625 17.871094 -43.285156 L 17.871094 -46.960938 L 0.496094 -41.597656 L 0.496094 -37.527344 L 1.191406 -37.527344 C 4.269531 -37.527344 5.164062 -36.535156 5.164062 -33.558594 L 5.164062 -8.140625 C 5.164062 -5.261719 4.269531 -4.269531 1.191406 -4.269531 L 0.496094 -4.269531 Z M 0.496094 0 "/></g></g></g><g fill="#ffffff" fill-opacity="1"><g transform="translate(212.054641, 219.147517)"><g><path d="M 2.183594 -23.230469 C 2.183594 -9.828125 10.027344 0.992188 24.222656 0.992188 C 34.25 0.992188 39.316406 -4.269531 43.484375 -12.808594 L 40.40625 -14.695312 C 37.925781 -10.621094 32.960938 -8.042969 28.195312 -8.042969 C 18.960938 -8.042969 15.488281 -17.671875 15.488281 -25.414062 L 43.1875 -25.414062 L 43.1875 -27.003906 C 43.1875 -38.71875 36.832031 -47.65625 23.726562 -47.65625 C 9.628906 -47.65625 2.183594 -36.335938 2.183594 -23.230469 Z M 15.6875 -29.585938 C 16.480469 -35.441406 18.367188 -43.585938 23.230469 -43.585938 C 27.898438 -43.585938 30.082031 -36.238281 30.480469 -29.585938 Z M 15.6875 -29.585938 "/></g></g></g><g fill="#ffffff" fill-opacity="1"><g transform="translate(258.118956, 219.147517)"><g><path d="M 23.132812 0.992188 C 32.5625 0.992188 38.023438 -3.476562 41.894531 -11.21875 L 42.09375 -11.714844 L 38.820312 -13.601562 L 38.519531 -13.105469 C 36.335938 -9.730469 32.167969 -7.644531 27.996094 -7.644531 C 18.566406 -7.644531 14.695312 -17.574219 14.695312 -25.714844 C 14.695312 -33.753906 15.6875 -43.484375 22.339844 -43.484375 C 24.324219 -43.484375 25.515625 -42.292969 26.507812 -40.507812 C 26.90625 -39.613281 27.300781 -38.621094 27.601562 -37.628906 C 27.898438 -36.632812 28.097656 -35.742188 28.394531 -34.847656 C 29.1875 -31.867188 31.273438 -29.785156 34.847656 -29.785156 C 38.125 -29.785156 41.101562 -31.96875 41.101562 -35.441406 C 41.101562 -43.78125 31.671875 -47.65625 24.621094 -47.65625 C 8.636719 -47.65625 1.488281 -37.429688 1.488281 -23.332031 C 1.488281 -10.425781 8.042969 0.992188 23.132812 0.992188 Z M 23.132812 0.992188 "/></g></g></g><g fill="#ffffff" fill-opacity="1"><g transform="translate(301.800628, 219.147517)"><g><path d="M 4.269531 -42.890625 L 4.269531 -9.628906 C 4.269531 -3.277344 7.84375 0.894531 14.792969 0.894531 C 19.957031 0.894531 23.726562 -1.488281 26.707031 -5.261719 L 27.003906 -5.660156 L 24.421875 -8.539062 L 23.925781 -8.042969 C 22.734375 -7.050781 21.34375 -6.253906 19.957031 -6.253906 C 17.871094 -6.253906 16.976562 -7.941406 16.976562 -10.226562 L 16.976562 -42.890625 L 26.011719 -42.890625 L 26.011719 -47.058594 L 16.976562 -47.058594 L 16.976562 -64.433594 L 13.304688 -64.433594 C 11.515625 -58.078125 6.355469 -47.355469 -0.296875 -47.058594 L -1.6875 -47.058594 L -1.6875 -42.890625 Z M 4.269531 -42.890625 "/></g></g></g><g fill="#ffffff" fill-opacity="1"><g transform="translate(329.3995, 219.147517)"><g><path d="M 17.769531 0.894531 C 22.339844 0.894531 25.117188 -0.59375 27.996094 -3.078125 C 29.1875 -0.496094 31.96875 0.496094 34.550781 0.496094 C 38.421875 0.496094 42.09375 -0.695312 44.476562 -3.871094 L 44.773438 -4.269531 L 42.589844 -6.949219 C 42.09375 -6.550781 41.203125 -5.757812 40.207031 -5.859375 C 39.117188 -5.957031 39.214844 -7.644531 39.214844 -8.4375 L 39.214844 -32.5625 C 39.214844 -42.890625 32.367188 -47.65625 22.140625 -47.65625 C 14.195312 -47.65625 3.871094 -44.675781 3.871094 -34.945312 C 3.871094 -31.570312 7.84375 -30.675781 10.027344 -30.675781 C 12.3125 -30.675781 16.679688 -31.570312 16.679688 -35.046875 C 16.679688 -39.117188 17.472656 -43.585938 21.941406 -43.585938 C 25.414062 -43.585938 26.410156 -40.011719 26.410156 -37.128906 C 26.507812 -36.039062 26.507812 -34.945312 26.507812 -34.054688 L 26.507812 -29.089844 C 24.421875 -29.785156 22.238281 -29.984375 20.152344 -29.984375 C 9.628906 -29.984375 1.390625 -24.027344 1.390625 -13.304688 C 1.390625 -3.078125 8.933594 0.894531 17.769531 0.894531 Z M 14.695312 -13.003906 C 14.695312 -19.261719 17.273438 -25.117188 24.324219 -25.117188 C 25.019531 -25.117188 25.8125 -25.019531 26.507812 -24.820312 L 26.507812 -8.242188 C 26.507812 -5.859375 23.429688 -3.773438 20.75 -3.773438 C 15.886719 -3.773438 14.695312 -8.539062 14.695312 -13.003906 Z M 14.695312 -13.003906 "/></g></g></g></svg>